<svg xmlns="http://www.w3.org/2000/svg" viewBox="0 0 347.51 74.067" version="1"><path d="M22.55 73.4c-5.76-.88-12.56-4.15-16.18-7.77C2.06 61.32.59 57.5.54 50.53c-.03-5.51.39-7.12 2.77-10.64 1.56-2.3 4.79-5.19 7.25-6.5C13 32.1 15 30.8 15 30.5c0-.29-1.46-1.39-3.25-2.42C3.42 23.23.0 17.36.0 7.88c0-6.37.24-6.44 10.72-3l7.15 2.34 2.02-2.02c3.52-3.52 27.84-3.27 25.66.26-.62.99 5.86 8.07 7.38 8.07 1.28.0 1.31-1.26.16-6.22l-.87-3.72 8.09.1c4.44.06 9.55.72 11.35 1.48 4.28 1.78 5.01 1.72 5.59-.46.41-1.58 1.42-1.79 7.6-1.57 3.92.15 7.55.52 8.07.84s1.23.13 1.57-.43c.76-1.23 7.63-1.29 12.68-.12 2.27.53 4.05.48 4.66-.13 1.45-1.45 7.66.87 11.35 4.25l3.12 2.85 5.88-4.15c5.86-4.14 5.9-4.15 15.1-4.16 7.53.0 9.97.39 13.32 2.16 4.43 2.35 9.83 7.91 10.88 11.22 1.06 3.35 2.15 2.45 5.69-4.69 2.97-6 3.67-6.76 6.34-6.86 1.64-.07 4.25-.46 5.78-.87 1.96-.53 3.3-.29 4.5.79 1.49 1.34 1.96 1.36 3.65.12 1.11-.81 4.24-1.43 7.25-1.43 4.23.0 5.31.33 5.31 1.62.0 1.2.58 1.45 2.25.98 5.69-1.62 7.67-1.69 10.36-.36 2.02 1.01 3.95 1.2 6.39.63 18.15-4.19 34.33-4.95 58.77-2.78 10.78.95 12.93.88 17.69-.62 5.32-1.67 5.49-1.66 8.94.47 3.15 1.95 3.92 2.05 7.56.96 2.92-.88 4.69-.92 6.38-.15 2.73 1.24 10.09.12 14.66-2.25 2.94-1.51 3.05-1.49 3.96.9.52 1.35.71 3.72.43 5.26-.68 3.75-3.39 9.34-4.53 9.34-.51.0-1.29.99-1.74 2.21-.67 1.8-.25 2.58 2.28 4.28 3.85 2.6 4.45 5.23 1.62 7.21l-2.16 1.52 2.07 1.93c2.35 2.2 2.53 3 .98 4.55-.79.79-.77 1.69.06 3.24.63 1.19 1.01 3.6.84 5.36-.27 2.84-.62 3.17-3.06 2.92-2.03-.22-2.75.15-2.75 1.41.0 3.45-5.18 10.4-10.7 14.35-9.85 7.05-23.58 9.75-33.8 6.66-2.79-.85-5.96-.95-10.5-.34-9.08 1.22-22.33.02-25.28-2.3-1.28-1.01-3.96-2.14-5.96-2.51-3.05-.58-4.23-.23-7.37 2.16-3.48 2.66-4.41 2.86-13.7 3.02-5.48.09-11.47.44-13.3.79-2.74.51-3.71.19-5.46-1.82l-2.12-2.44-4.45 1.97c-3.57 1.58-5.58 1.83-10.15 1.27-3.14-.39-6.83-1.47-8.21-2.42-1.37-.94-3.96-2.21-5.75-2.81l-3.26-1.1.64 3.94c.72 4.56.93 4.5-9.84 2.94-4.23-.61-7.63-.62-9.19-.02-1.8.68-3.35.51-5.64-.64-2.77-1.38-3.09-1.94-2.56-4.57.59-2.94.56-2.97-1.65-1.42-8.23 5.78-16.45 7.93-29.66 7.77-10.18-.13-28.86-3.7-33.06-6.32-1.19-.74-4.08-.43-10.42 1.13-18.5 4.55-44.78 6.83-57.06 4.95zM61 69c3.58-.34 7.4-1 8.5-1.46 1.1-.47 6.28-1.83 11.5-3.03 5.23-1.21 12.88-3.23 17-4.51 19.68-6.09 24.91-7.47 28.56-7.54 2.74-.05 3.37-.29 2.08-.8-2.26-.89 32.4-9.72 45.86-11.68 11.59-1.69 27.76-1.22 32.75.95 4.38 1.9 4.86.71 1.11-2.76-5.5-5.1-22.41-7.27-32.61-4.17-2.66.81-4.75 1.02-4.75.49s.67-.96 1.49-.96c2.36.0 14.51-5.11 14.51-6.1.0-.49-.56-.91-1.25-.93-.69-.01-4.02-.19-7.4-.39-5.77-.34-6.51-.12-11.89 3.53-3.15 2.14-6.21 3.89-6.79 3.89-.59.0.82-1.22 3.13-2.72s4.2-3.24 4.2-3.88c0-1.73-5.35.43-12.38 5.01-6.97 4.53-27.64 14.91-28.33 14.21-.27-.26 1.47-1.38 3.86-2.49 4.97-2.31 17.77-11.88 18.88-14.13 1.36-2.75 2.84-6.47 3.48-8.75.46-1.64.2-2.25-.94-2.25-.86.0-1.57.36-1.57.79.0 1.8-16.58 19.19-18.32 19.21-.44.0-2.24 1.08-4 2.39-3.35 2.51-11.68 6.95-11.68 6.23.0-.23 1.96-1.57 4.35-2.97 5.95-3.49 12.94-11.59 11.5-13.33-1.13-1.36-3.25-.78-2.37.65.28.45-.37 1.88-1.44 3.18l-1.95 2.35 1.04-3.89c2.12-7.91-1.54-19.53-7.61-24.16-3.72-2.84-4.52-3.01-4.52-.95.0 1.89-.76 1.88-4.5-.08-1.65-.86-5.21-1.83-7.91-2.15-4.65-.55-4.88-.47-4.34 1.58.67 2.56.88 2.52-3.59.65-1.98-.82-5.86-1.5-8.63-1.5-4.33.0-5.03.28-5.03 1.97.0 1.08 1.01 2.5 2.25 3.17 4.57 2.44-.2 1.86-5.87-.73-3.24-1.47-7.9-2.79-10.38-2.92-2.47-.14-5.96-.59-7.75-1C56.51 6.4 56 6.57 56 8.1c0 1.96 4.02 8.42 5.25 8.43.41.0.75.96.75 2.13.0 1.55-.33 1.86-1.25 1.14-.69-.54-2.74-1.27-4.56-1.61-3.34-.64-4.01-.33-8.78 4.05-3.01 2.75-7.14 3.66-18.66 4.11-2.71.1-4.75.66-4.75 1.3.0 1.1 16.38.79 23.54-.45 2.49-.42 16.23-4.07 23.71-6.28.96-.29 1.75-.05 1.75.53.0.57-1.24 1.34-2.75 1.7s-3.32 1.11-4.02 1.66-2.27 1.13-3.5 1.27c-1.23.15-5.15.81-8.73 1.45-3.57.65-8.97 1.4-12 1.66-3.02.27-6.17.75-7 1.07-2.11.83 3.23 2.01 9.75 2.16 5.68.12 9.04 2.26 8.44 5.38-.18.95.26 1.78.99 1.84 3.47.28 7.58-.45 10.2-1.8 2.31-1.19 3.05-1.24 3.67-.22.6.96 1.74.56 4.62-1.62 2.11-1.58 3.98-3.24 4.16-3.67.19-.44 1.02-.8 1.86-.8 1.07.0 1.3.53.79 1.75-.4.97-.96 2.77-1.22 4-.44 2.04-.11 2.25 3.43 2.25 6.14.0 13.82-5.53 19.37-13.94.85-1.29 2.07-2.17 2.7-1.95.71.24-.14 2.46-2.28 5.89-2.05 3.28-3.44 6.82-3.46 8.75-.02 3.78.76 4.01 4.25 1.25 1.4-1.1 2.93-2 3.4-2s1.41-.9 2.1-2c2.7-4.32 9.29-.91 7.73 4-1.31 4.14-18.56 15.27-25.83 16.66-1 .2-7.53 1.73-14.5 3.4-6.97 1.68-16.27 3.51-20.67 4.07-9.75 1.24-27.38 1.12-33.5-.23-12.6-2.79-18.32-13.9-10.63-20.65 5.79-5.08 17.17-5.12 21.36-.07 1 1.21.84 1.91-.85 3.72-1.14 1.23-2.67 2.01-3.39 1.74-1.22-.47-5.29 2.97-4.4 3.72.23.19 2.97 1.54 6.1 2.99 4.59 2.14 6.19 2.46 8.31 1.65 1.44-.54 2.34-1.44 2-1.99-.35-.57.47-1.01 1.88-1.01 3.58.0 4.18-1.75 1.74-5.05-2.45-3.32-2.59-3.95-.86-3.95.69.0 3.05 2.69 5.25 5.98 3.82 5.71 7.49 7.9 7.49 4.47.0-1.41.21-1.41 2.22.0 3.17 2.21 4.36 1.93 4.24-1-.12-2.69-1.04-3.9-5.96-7.86-1.65-1.33-2.7-2.71-2.35-3.07.67-.67 4.26 1.06 6.55 3.15 1.91 1.74 6.99 2.61 8.93 1.52 1.53-.85 1.48-1.02-.47-1.63-4.47-1.43-1.93-2.15 3.59-1.03 5.88 1.2 8.25 1 8.25-.69.0-.53.45-.68 1-.34s1 .15 1-.44c0-.58-.76-1.06-1.68-1.06-.93.0-2.73-.98-4.01-2.18-2.22-2.08-2.47-2.11-5.69-.57-2.04.97-3.73 1.24-4.28.69-.56-.56-2.28-.53-4.37.07-6.65 1.91-9.46 1.33-11.04-2.25C49.55 35.16 49.2 35 41 33.88c-17.3-2.38-25.69-1.07-32.14 5.01-4.91 4.63-6.41 9.37-4.89 15.46 1.77 7.09 8.42 12.89 17.53 15.31 3.12.82 28.2.41 39.5-.66zm56.78-26.93c3.46-2.87 6.22-8.24 6.22-12.09.0-3.59-4.54-6.6-8.9-5.91-2.77.45-3.22.33-1.93-.48.92-.59 2.8-1.16 4.18-1.27 1.38-.12 2.26-.61 1.96-1.1-.9-1.45-7.02-3.69-10.03-3.66-4.02.03-11.09 3.5-14.72 7.24-6.31 6.5-7.86 7.07-2.68.98 2.92-3.43 5.72-6.25 6.22-6.25s.9-.5.9-1.13c0-.77-1.62-.92-5.25-.46-8.48 1.08-11.8 2.53-20 8.75-4.26 3.24-7.75 5.45-7.75 4.92s2.48-2.9 5.51-5.26c3.05-2.38 4.95-4.49 4.25-4.71-.69-.22-1.62-1.01-2.06-1.75-.44-.75-1.56-1.37-2.5-1.39-2.4-.05-7.25-2.88-5.01-2.93.93-.02 2.01.48 2.4 1.11.51.82 4.29.96 13.31.49 15.99-.83 20.09-1.49 19.46-3.15-.27-.71-.01-1.58.57-1.94.59-.37 1.07-.21 1.07.35s1.69 1.32 3.75 1.7c9.24 1.68 17.69 7.88 18.8 13.8.87 4.66-2.95 12.18-7.55 14.83l-3.5 2.02 3.28-2.71zm-55.97-8.22c.73-.29 1.59-.25 1.92.08s-.26.57-1.31.52c-1.17-.04-1.4-.28-.61-.6zM58 29.03c.69-.82 1.7-1.5 2.25-1.5s.45.67-.25 1.5c-.68.83-1.69 1.5-2.24 1.5-.56.0-.45-.66.24-1.5zm36-16.52c-2.22-.74-2.11-.81 1.04-.71 1.95.06 4.08-.22 4.74-.63.8-.5 1-.23.6.81-.64 1.68-2.45 1.83-6.38.53zm49.05 54.37c8-2.97 15.5-8.76 12.75-9.85-1.03-.41-4.3.61-8.28 2.57-5.74 2.82-7.88 3.3-16.64 3.73-7.32.35-12.33.0-18.4-1.27-7.08-1.49-9.14-1.57-13.46-.53-2.81.67-4.96 1.67-4.78 2.22.57 1.7 11.27 4.67 22.26 6.19 6.81.94 19.81-.56 26.55-3.06zm88.29 2.02c7.69.67 12.44-.63 7.14-1.96-7.27-1.83-12.59-7.63-12.41-13.56.06-1.81.4-1.44 1.51 1.59 1.73 4.72 3.74 7.08 7.74 9.07 5.84 2.92 14.81.82 16.27-3.8.83-2.59.21-2.88-3.41-1.62-2.57.9-3.82.76-6.9-.75-5.16-2.53-7.04-6.08-5.36-10.13.78-1.88 2.4-3.47 4.18-4.09 4.16-1.45 3.58-3.12-1.1-3.12-2.2.0-4-.47-4-1.04.0-.58-1.1-2.15-2.45-3.5-2.73-2.73-6.55-3.29-6.55-.96.0.83-.35 1.5-.78 1.5-1.32.0-3.98 5.38-3.66 7.38.17 1.04.78 2.37 1.37 2.95 1.59 1.59 1.3 2.8-.6 2.47-1.31-.23-1.71.61-1.9 4.02-.17 2.96.2 4.49 1.16 4.86.78.29 1.41 1.15 1.41 1.9.0.8-.62 1.12-1.51.78-1.08-.41-1.34-.12-.89 1.03.39 1.01-.24 2.31-1.66 3.46-1.42 1.16-2.04 2.45-1.65 3.46.52 1.36 1.13 1.44 3.76.53 1.88-.66 6-.85 10.29-.47zm-53.83-.38c.34-.55-.34-2.23-1.52-3.72-1.24-1.58-1.68-2.87-1.06-3.08 1.94-.64 1.12-2.65-1.92-4.69-2.01-1.34-2.81-2.56-2.44-3.71.4-1.27-.2-1.9-2.26-2.39-1.55-.37-3.27-1.03-3.84-1.47-2.28-1.78-15.96-2.07-23.91-.51-11.35 2.23-11.85 3.58-1.31 3.58 4.76.0 11.04.51 13.95 1.13 5.91 1.25 13.73 4.88 15.74 7.3 1.87 2.25.7 1.95-3.53-.93-2.03-1.37-4.02-2.5-4.42-2.5s-.99 1.47-1.32 3.25c-.32 1.79-.9 4.33-1.29 5.65-.68 2.36-.6 2.39 4.22 1.76 2.69-.35 6.25-.23 7.9.27 4.12 1.24 6.27 1.26 7.01.06zm132.13-.3c-7.15-4.58-7.89-6.46-5.11-13.11.85-2.01 1.27-4.09.94-4.62-.81-1.32-3.82-1.2-5.23.2-.87.88-1.5.87-2.59-.03-1.15-.96-2.02-.6-4.46 1.84-3.06 3.06-4.66 3.7-5.56 2.24-.73-1.19.41-2.43 4.94-5.36 3.12-2.02 4.48-2.4 5.87-1.62 1.2.67 2.01.67 2.43.01.35-.55 1.53-1.17 2.63-1.38 1.32-.25 2.11-1.31 2.32-3.11.38-3.29-.27-3.38-4.71-.67-2.66 1.62-3.57 1.79-4.19.79-.63-1.01-1.2-.92-2.69.42-2.29 2.08-4.37 2.25-3.62.3.53-1.4 7.91-5.4 14.04-7.61 1.74-.63 4.21-2.29 5.5-3.7l2.35-2.56-4.71.62-4.72.62 1.01-2.65c1.19-3.15.57-5.31-1.55-5.31-.84.0-1.53-.45-1.53-1s.45-1 1-1 1-.51 1-1.14c0-.78-1.77-.95-5.75-.55-7.57.77-12.25 2.21-16.45 5.06l-3.44 2.33-1.26-2.85c-.7-1.56-1.76-2.85-2.35-2.85-1.85.0-4.75 3.21-4.75 5.27.0 1.29-.49 1.76-1.44 1.39-1.1-.42-1.52.47-1.75 3.65l-.31 4.19-2.24-3.5c-1.24-1.92-2.25-3.09-2.25-2.59-.01.5-.85.14-1.89-.8-1.79-1.62-1.92-1.57-2.68 1.1-1.79 6.23-.69 10.24 4.18 15.16 1.29 1.31 2.12 2.74 1.85 3.19-.28.44-.04 1.09.52 1.43 2.1 1.31.9 2.44-1.99 1.86-2.03-.4-3-.2-3 .64.0.68-.67.97-1.5.65-.93-.36-1.5.01-1.5.96.0 2.66 1.86 5.15 5.51 7.41 2.01 1.24 3.42 2.86 3.26 3.75-.17.97.77 1.84 2.49 2.32 3.29.9 19.04.5 23.15-.6 2.72-.72 2.79-.86 1.06-2.12-1.02-.75-3.94-1.36-6.49-1.36-6.43.0-19.84-2.47-18.83-3.47.23-.24 3.47.0 7.2.52 6.68.95 11.65.5 11.65-1.06.0-.44-2.36-2.13-5.25-3.76-7.07-3.99-18.22-16.23-14.78-16.23.57.0 1.03.39 1.03.86.0 1.57 8.18 10.19 11.12 11.7 3.75 1.94 3.74.95-.09-8.17-1.64-3.9-3.2-9.73-3.48-12.98-.47-5.64-.45-5.7.43-1.41 1.51 7.31 3.04 12 3.93 12 .45.0 1.83-2.77 3.07-6.15 2.77-7.6 9.47-13.74 15.02-13.76.83-.01-.07.67-2 1.51-6.75 2.91-13.78 11.79-7.43 9.38 3.32-1.27 7.43-1.25 7.43.02.0.55-1.55 1-3.45 1-5.02.0-9.11 5.52-8.9 12.03.2 6.61 6.24 15.75 11.85 17.95 3.17 1.24 3.92.73 3.69-2.48-.12-1.65.23-3.67.78-4.5.75-1.12 1-.49 1.02 2.53.02 6.61 3.81 10.34 10.51 10.35 2.7.01 2.81-.12 1.14-1.19zm-99.95-2.78c2.83-1.37 4.53-2.94 4.94-4.54.78-3.12.07-3.81-2.48-2.45-4.76 2.55-13.56.16-16.61-4.5-1.9-2.91-4.09-3.1-5.71-.51-1.09 1.74-1.39 1.77-3.5.39-2.62-1.72-5.33-1.12-5.33 1.17.0.84-.45 1.53-1 1.53s-1 1.35-1 3c0 2.32.45 3 1.96 3 1.08.0 4.25.9 7.04 2 6.03 2.38 6.61 2.45 5.08.6-1.82-2.2-2.96-7.18-1.99-8.71.62-.97.89-.45.9 1.73.01 3.5 3.82 8 7.34 8.69 4.46.87 6.15.64 10.36-1.4zm121.47-4.97c3.25-3.25 5.15-6.22 6.13-9.58 1.18-4.07 1.84-4.91 4.06-5.17 3.14-.38 3.22-.88.69-4.18-1.72-2.24-1.76-2.66-.39-4.18 1.4-1.53 1.24-1.83-1.71-3.36l-3.24-1.68 3.28-2.57 3.28-2.57-4.81-2.32c-2.65-1.28-5.86-2.33-7.14-2.33-3.32.0-2.84-1.54.94-3.04 5.94-2.34 11.62-9.26 10.34-12.59-.66-1.72-6.28-1.01-11.02 1.38-2.62 1.34-3.04 1.32-4.11-.13-1.59-2.18-5.41-2-8.46.38-3.14 2.46-4 2.49-4 .13.0-3.79-2.45-4.55-10.05-3.12-5.77 1.09-9.98 1.09-24.36.0-10.94-.83-21.42-1.04-28.24-.57-15.25 1.04-16.3 1.2-21.35 3.07-9.38 3.5-9.97 3.57-9.72 1.17.17-1.67-.38-2.25-2.38-2.48-2.62-.3-13.27 3.97-14.38 5.78-.69 1.11-9.21 5.03-10.9 5.01-.61-.01.91-1.17 3.38-2.58 5.95-3.39 8-5.33 8-7.56.0-1.3-.74-1.85-2.5-1.85-1.82.0-4.87 2.37-11.07 8.6-4.71 4.73-8.87 8.3-9.24 7.92-.38-.38.66-1.84 2.31-3.26 4-3.43 7.5-8.25 7.5-10.33.0-1.87-3.65-3.29-4.59-1.78-.32.52-1.33.88-2.25.79-3.19-.32-3.77.09-5.03 3.58-.7 1.93-2.81 5.54-4.7 8.01S172 23.73 172 23.94c0 .22 1.69.39 3.75.39s6.11.16 9 .35c2.89.2 5.25.1 5.25-.2.0-.31 2.36-1.17 5.25-1.9s5.81-1.54 6.5-1.8c.69-.25 1.25.04 1.25.65s-.79 1.14-1.75 1.18c-1.29.06-1.38.23-.34.64.78.31 1.99-.23 2.7-1.19 2.89-3.96 21.6-2.83 25.68 1.55.98 1.06 2.56 1.9 3.5 1.86 1.26-.05 1.12-.3-.54-.97-1.24-.49-2.25-1.19-2.25-1.55.0-.71.51-.58 9.73 2.37 5.77 1.84 6.15 1.86 5.28.23-.52-.96-.62-2.07-.23-2.46s-.08-1.15-1.04-1.68c-1.91-1.07-2.35-2.88-.69-2.88.58.0 2.71 1.13 4.74 2.5 2.07 1.41 5.11 2.5 6.94 2.5 3.44.0 4.05-.81 2.09-2.78-2.22-2.21-.18-2.21 5.92.01l6.08 2.21 2.01-2.47 2.01-2.47 3.05 2.91c2.54 2.43 3.29 2.69 4.58 1.62.84-.7 1.53-1.6 1.53-2 0-1.14-12.15-4.14-20.2-4.99-4.02-.42-6.17-.87-4.8-1 4.8-.44 10.55.11 17.5 1.69 4.11.93 12.57 1.68 20.5 1.8 17.94.29 26.06 2.2 31.63 7.43 9.16 8.62 11.07 14.69 6.94 22.05-1.38 2.47-3.48 6.4-4.65 8.73s-3.77 5.83-5.77 7.78l-3.65 3.55 3.47-1.21c1.92-.66 5.6-3.33 8.19-5.92zM326 23.53c0-.55.48-1 1.06-1s.78.45.44 1-.82 1-1.06 1-.44-.45-.44-1zm-127.19-4.68c.73-.29 1.59-.25 1.92.08s-.26.57-1.31.52c-1.17-.04-1.4-.28-.61-.6zM213 15.61c4.68-.99 10.68-2.11 13.34-2.51 2.66-.39 5.81-.91 7-1.15 1.19-.23 7.56-.91 14.16-1.5 11.94-1.07 19.37-.88 48 1.24 8.25.61 20.63.87 27.5.59 9.17-.38 11.84-.24 10 .52-4.32 1.8-48.96 1-52.23-.93-.41-.24-7.83-.45-16.5-.46-15.29-.03-30.93 1.49-47.63 4.64-11.02 2.08-13.94 1.72-3.64-.44zm30.73-.8c1.77-.22 4.92-.22 7-.01 2.07.22.62.4-3.23.41-3.85.0-5.55-.18-3.77-.4zm76.52 48c2.52-2.28 2.17-3.28-1.18-3.28-1.61.0-3.6-.67-4.43-1.5-.82-.82-2.15-1.5-2.96-1.5s-1.75-.75-2.11-1.67c-.56-1.46-.83-1.49-2.04-.25-2.64 2.69-2.91 6.62-.6 8.61 4.09 3.51 9.16 3.35 13.32-.41zM55.5 61.65l3-.86-2.92-1.17c-1.61-.64-3.63-1-4.5-.79-.87.2-3-.47-4.75-1.49-3.15-1.86-3.18-1.86-8.69.85-6.08 2.98-6.58 2.89-13.56-2.19-1.97-1.44-4.16-2.26-5.17-1.94-4.26 1.35-2.54-6.93 1.97-9.49 1.49-.85 1.48-1.06-.06-2.62-1.57-1.6-1.96-1.56-6.5.69-4.54 2.26-4.84 2.64-5.13 6.76C8.47 59.42 18.96 63.74 42 62.9c5.78-.21 11.85-.77 13.5-1.25zm82.75-1.17c7.59-3.5-1.25-5.85-15.27-4.05-4.9.63-9.93 1.53-11.19 2-2.06.78-1.79 1.03 2.71 2.48 5.79 1.87 19.31 1.63 23.75-.43zm-68.83-1.55c2.27-.87 1.96-1.9-.97-3.24-3.25-1.48-3.45-1.46-3.45.34.0.83-.67 1.5-1.5 1.5-.82.0-1.5.45-1.5 1 0 1.1 4.91 1.36 7.42.4zm144.79-4.16c1.37-1.37 1.79-2.67 1.33-4.12-.6-1.89-.84-1.96-2.18-.62-1.82 1.82-6.73 1.98-8.14.25-.56-.68-1.18-2.37-1.38-3.75-.26-1.91-.87-2.44-2.59-2.26-1.24.13-2.25-.2-2.25-.75.0-1.43-1.72-1.21-4.43.56-2.24 1.47-2.29 1.71-.89 4.5.81 1.63 1.85 2.95 2.33 2.95.47.0 1.15.94 1.52 2.09 1.52 4.79 12.3 5.53 16.68 1.15zM82.85 56.44C84.58 55.83 86 55 86 54.59c0-.83-12.37-7.06-14.04-7.06-.59.0-.78.48-.42 1.07.37.59-.32 1.33-1.55 1.65-1.92.5-1.43 1.02 3.65 3.92 3.22 1.84 5.91 3.34 5.96 3.35.06.01 1.52-.48 3.25-1.08zm166.58-1.25c3.15-3.15 4.19-9.56 2.17-13.46-4.58-8.86-17.04-15.64-31.52-17.14-4.97-.51-10.06-.77-11.31-.58s-4.45.64-7.11 1.01-6.94 1.58-9.5 2.69c-4.39 1.92-4.52 2.08-2.31 2.93 1.29.5 5.56.56 9.5.15 18.04-1.9 32.26-.06 40.72 5.29 4.55 2.87 8.93 8.94 8.93 12.37.0 3.01-3.61 7.05-6.42 7.18-1.81.09-1.76.21.42.9 3.77 1.21 3.92 1.18 6.43-1.34zm-69.78-1.66c1.39-1.65 3.39-3 4.44-3s1.91-.44 1.91-.98c0-3.22-18.11-6.14-18.72-3.02-.16.83 1.29 2.52 3.21 3.76 1.93 1.25 3.51 2.9 3.51 3.67.0 1.17.98 2.03 2.82 2.49.17.05 1.45-1.27 2.83-2.92zM93 52.03c.69-.82 1.87-1.5 2.63-1.5 2.53.0 11.56-5.46 13.48-8.16 1.74-2.43 1.71-5.84-.05-5.84-.41.0-1.6 1.77-2.64 3.93-2.03 4.16-3.97 5.03-11.92 5.35-3.81.15-4.01.0-4.31-3.06-.17-1.77-.7-3.22-1.18-3.22-.78.0-7.01 8.48-7.01 9.53.0.63 7.31 4.38 8.63 4.43.62.02 1.69-.63 2.37-1.46zm152.25.11c2.11-1.6 2.34-5.61.31-5.61-.79.0-1.72.45-2.06 1s-1.49 1-2.56 1c-1.25.0-1.94.69-1.94 1.93.0 1.62 1.12 2.44 4 2.93.28.04 1.29-.52 2.25-1.25zm78.83.39c6.49-1.81 11.49-10.26 9.13-15.45-1.55-3.38-2.59-3.21-3.75.62-1.12 3.7-5.38 7.2-8.08 6.64-1.48-.31-1.1-.77 1.73-2.15 3.27-1.59 5.89-5.06 5.89-7.8.0-3.53-3.56-7.96-8.29-10.31-2.81-1.4-5.63-2.55-6.27-2.55-1.82.0-.45 4.92 1.68 6.07 1.04.55 1.88 1.93 1.88 3.05.0 2.55 2.11 2 3.59-.94.6-1.19 1.39-1.87 1.75-1.5 1.31 1.3.62 3.38-1.85 5.52-1.59 1.38-2.3 2.82-1.95 3.94.48 1.5-.2 1.8-4.64 2.06-6.35.37-8.74 2.83-5.18 5.32 1.31.91 1.96 2.15 1.62 3.05-.32.83.22 2.39 1.2 3.47 1.96 2.18 5.96 2.51 11.54.96zM257 47.57c0-5.48-7.4-18.04-10.62-18.04-.8.0-3.27-.92-5.49-2.05-5.92-3.03-6.96-1.84-1.15 1.31 8.13 4.43 13.44 11.1 14.63 18.35.59 3.66.46 3.39 1.63 3.39.55.0 1-1.33 1-2.96zm-45.3.31c.58-1.51-2.72-5.35-4.59-5.35-.58.0-.75 3.94-.26 6.25.3 1.46 4.22.73 4.85-.9zM165 46.03c0-.99-.99-1.5-2.94-1.5-3.6.0-4.95 1.7-1.82 2.3 4.19.8 4.76.71 4.76-.8zm77-.06c0-.85-.45-1.28-1-.94s-1 1.05-1 1.56c0 .52.45.94 1 .94s1-.7 1-1.56zm-22.07-6.95c.09-2.48-2.62-4.25-7.76-5.08-4.48-.71-6.8 1.15-2.71 2.17 1.4.35 3.98 2.45 5.73 4.67 2.82 3.55 3.28 3.8 3.93 2.14.41-1.04.77-2.79.81-3.9zm-61.18-11.86c3.86-1.99 4.12-4.2 1.21-10.2-1.79-3.7-7.52-8.2-8.81-6.91-.22.22.59 2.08 1.8 4.13 1.75 2.95 2.04 4.47 1.43 7.29-.43 1.96-.81 4.12-.84 4.79-.03.68-.76 2.05-1.61 3.05-3.25 3.79-3.2 4.63.12 2.12 1.9-1.43 4.91-3.35 6.7-4.27zm-18.68 2.79c1.03-1.24 1.06-1.99.11-3.5-1.03-1.65-.92-1.92.81-1.92 1.11.0 2.01-.64 2.01-1.43s.98-1.74 2.17-2.12c2.04-.65 1.98-.76-.92-1.99-3.73-1.56-5.25-4.13-5.25-8.89.0-4.66-2.18-4.71-6.36-.14-2.53 2.75-3.2 4.43-3.45 8.6-.29 4.92-.1 5.37 3.8 9.07 4.58 4.37 5.21 4.57 7.08 2.32zM18.34 22.61c.32-1.61 1.53-3.8 2.68-4.88 2.49-2.32 8.22-3.44 11.29-2.21 1.72.69 1.1.9-2.84.95-6.02.08-9.47 2.16-9.47 5.74.0 2.29.29 2.49 2.75 1.88 1.51-.38 3.65-.66 4.75-.63 9.9.29 13.92-.12 14.94-1.52.62-.83 1.93-1.64 2.92-1.78 2.01-.3 3.62-2.36 3.6-4.63-.01-.82-1.61-3.21-3.56-5.31-3.49-3.75-3.69-3.83-11.7-4.13-8.32-.31-11.46.66-14.37 4.43-.64.83-1.91 2.41-2.82 3.51-1.65 1.99-1.65 1.99-1.21-.1.69-3.3-1.02-5.5-3.74-4.82-1.29.32-2.64.1-3.01-.5-.37-.59-1.77-1.08-3.11-1.08-1.9.0-2.44.53-2.44 2.38.0 6.27 7.43 15.62 12.41 15.62 1.79.0 2.48-.69 2.93-2.92zm150.01.66c1.6-1.18 1.62-1.58.16-5.7-1.88-5.33-3.86-7.67-8.51-10.02-4.85-2.46-9.2-3.26-13.41-2.47-5.04.95-4.47 2.45.93 2.45 3.03.0 5.76.78 8.27 2.37 5.13 3.24 5.82 4.27 8.59 12.88.66 2.08 1.63 2.2 3.97.49zm59.65.26c0-.55-.79-.99-1.75-.98-1.49.01-1.53.16-.25.98 1.89 1.22 2 1.22 2 0zm-4-1c0-.55-.56-1.04-1.25-1.08-2.97-.21-7.6-.16-12.25.13-4.35.28-3.97.4 3 .95 4.4.35 8.56.72 9.25.82s1.25-.27 1.25-.82zm-78-6.03c0-.57-.79-1.32-1.75-1.69-.96-.36-2.3-1.36-2.97-2.21-1.79-2.3-1.54.11.28 2.71 1.59 2.28 4.44 3.04 4.44 1.19zm4.49-.95c.85-1.37-1.15-4.76-3.58-6.06-1.52-.82-2.42-.77-3.57.17-1.33 1.11-1.1 1.62 1.82 4.05 3.67 3.04 4.43 3.3 5.33 1.84z"/></svg>