<svg baseProfile="basic" xmlns="http://www.w3.org/2000/svg" width="48" height="48" viewBox="0 0 48 48">
  <path fill="red" d="M24 0c-9.8 0-17.7 7.8-17.7 17.4 0 15.5 17.7 30.6 17.7 30.6s17.7-15.4 17.7-30.6c0-9.6-7.9-17.4-17.7-17.4z"/>

  <!-- gallery
  <path
    fill="white"
    transform="scale(0.5) translate(21, 10)"
    d="M21.211 6c-12.632 0-20.211 10.133-20.211 15.2s2.526 8.867 7.579 8.867 7.58 1.266 7.58 5.066c0 5.066 3.789 8.866 8.842 8.866 16.422 0 24-8.866 24-17.732-.001-15.2-12.635-20.267-27.79-20.267zm-3.158 5.067c1.744 0 3.158 1.418 3.158 3.166 0 1.75-1.414 3.167-3.158 3.167s-3.158-1.418-3.158-3.167c0-1.748 1.414-3.166 3.158-3.166zm10.104 0c1.744 0 3.158 1.418 3.158 3.166 0 1.75-1.414 3.167-3.158 3.167-1.743 0-3.157-1.418-3.157-3.167 0-1.748 1.414-3.166 3.157-3.166zm10.106 5.066c1.745 0 3.159 1.417 3.159 3.167 0 1.75-1.414 3.166-3.159 3.166-1.744 0-3.157-1.417-3.157-3.166-.001-1.749 1.413-3.167 3.157-3.167zm-29.052 2.534c1.744 0 3.157 1.417 3.157 3.165 0 1.75-1.414 3.167-3.157 3.167s-3.158-1.418-3.158-3.167c0-1.748 1.414-3.165 3.158-3.165zm15.789 12.666c2.093 0 3.789 1.7 3.789 3.801 0 2.098-1.696 3.799-3.789 3.799s-3.789-1.701-3.789-3.799c0-2.101 1.696-3.801 3.789-3.801z"/>
    -->
  <path
  fill="white"
  transform="scale(0.45) translate(28, 16)"
  d="M42.215 13h-5.674l5.709-5.474-5.648-5.526h-7.994l5.727 5.473-5.871 5.527h-6.789l5.838-5.474-5.767-5.526h-8.131l5.727 5.473-5.879 5.527h-5.754l5.841-5.474-5.778-5.526h-5.772v46h46v-46h-5.642l5.642 5.504-5.785 5.496zm-.215 29h-34v-6h34v6zm0-11h-34v-6h34v6z">

</svg>